<svg xmlns="http://www.w3.org/2000/svg" viewBox="0 0 322.21 209.5"><defs><style>.cls-1{fill:currentColor;}.cls-2{fill:none;}.cls-3,.cls-4,.cls-5{fill:none;}.cls-3,.cls-4{stroke:currentColor;stroke-linecap:round;stroke-linejoin:round;}.cls-3{stroke-width:2px;}</style></defs><title>Asset 4</title><g id="Layer_2" data-name="Layer 2"><g id="Layer_1-2" data-name="Layer 1"><path d="M142,34.16A5.41,5.41,0,0,1,146,39.72a5.33,5.33,0,1,1-9.47-3.85A5.27,5.27,0,0,1,142,34.16Zm-3.95,5.07a2,2,0,1,0-.34-3.44A2.15,2.15,0,0,0,138.05,39.23Z"/><path d="M118.33,58.9c1.65-.78,3.33-1.47,5-2.09a76.6,76.6,0,0,1,8.29-2.46c2.69-.65,5.42-1.17,8.15-1.59a97.66,97.66,0,0,1,34.9.61c.87.19,1.73.39,2.59.6a72.62,72.62,0,0,1,9.15,2.91,67.05,67.05,0,0,1,7,3.2q2.22,1.2,4.35,2.56a51.53,51.53,0,0,1,5,3.68,6.32,6.32,0,1,0,7.8,7.79A51.66,51.66,0,0,1,222.32,101a8.42,8.42,0,0,0-3.55.77c-2.74,1.65.9,5.87,3.47,9.11h0a16.12,16.12,0,0,1,1.93,2.76,11.15,11.15,0,0,0,1.52,2.59,3.86,3.86,0,0,0-.93,2.05,4.4,4.4,0,0,0,2.63,4.33l-.1.22q-.4,5.85-.82,11.71a33.75,33.75,0,0,0,9.43-1.24,160.57,160.57,0,0,1-14.42,56.66,156.13,156.13,0,0,1-9.7,17.9,147.71,147.71,0,0,0,3.12-18.21,152.22,152.22,0,0,0-5.9-61.4A50.73,50.73,0,0,1,203.18,140l-6-6.87q-3.12,6.78-6.25,13.57-5.52-9.45-11.06-18.9-1.94,5.79-3.89,11.6a167.35,167.35,0,0,1-23-57.71,571.1,571.1,0,0,1-1.22,61.92c-.11,1.52-.23,3.05-.35,4.57q-5-5.89-10-11.81l-3.52-4.16-2.49,5.7q-1.94,4.41-3.86,8.83c-1.06-1.6-2.08-3.24-3-4.9a106.59,106.59,0,0,1-8.63-18.66l-1.86,21.25-.57,6.58a111.94,111.94,0,0,1-18.32-33.34,87.59,87.59,0,0,1-4.32-21.49c3.93-4.39,8.15-9.08,8.15-9.08s-3.28-2-7.38-4.62a36.21,36.21,0,0,1,8.06-13.17,11,11,0,0,0,5,4.74c1.54.7,3.45,1,4.87.08,1.58-1,2-3.16,2.17-5.05a12.1,12.1,0,0,0-.06-4.37,4.42,4.42,0,0,0-2.46-3.09A48.73,48.73,0,0,1,118.33,58.9Z"/><path class="cls-1" d="M169.25,34.07a5.41,5.41,0,0,1,3.95,5.56,5.33,5.33,0,1,1-9.47-3.85A5.27,5.27,0,0,1,169.25,34.07Zm-3.95,5.07A2,2,0,1,0,165,35.7,2.15,2.15,0,0,0,165.3,39.14Z"/><path class="cls-2" d="M168,37.14a2.06,2.06,0,0,1-2.7,2A2.15,2.15,0,0,1,165,35.7,2.06,2.06,0,0,1,168,37.14Z"/><path d="M112.67,197.36q2.07,5.69,4.46,11.14a76,76,0,0,1-18.06-13.43,58.3,58.3,0,0,1-12-17.63,55.51,55.51,0,0,1-4.54-22.09q4.6-1.68,9-3.8c1-.47-12.54-19.62-13.89-21.22-1.21-1.44-2.54-2.87-3.6-3.21a1.39,1.39,0,0,0-.44-.07l0-.59h.13a5.87,5.87,0,0,0,4-10.13c3.34-3.94,8.51-10.73,10.92-13.4l6.09-6.77a87.59,87.59,0,0,0,4.32,21.49A229.86,229.86,0,0,0,112.67,197.36Z"/><path class="cls-3" d="M209,128.22a49.52,49.52,0,0,0,1.78-6.55"/><path class="cls-3" d="M94.84,96.17a87.59,87.59,0,0,0,4.32,21.49A111.94,111.94,0,0,0,117.48,151l.57-6.58,1.86-21.25a106.59,106.59,0,0,0,8.63,18.66c1,1.66,2,3.3,3,4.9q1.92-4.41,3.86-8.83l2.49-5.7,3.52,4.16q5,5.91,10,11.81c.12-1.52.24-3,.35-4.57A571.1,571.1,0,0,0,153,81.68a167.35,167.35,0,0,0,23,57.71q2-5.8,3.89-11.6,5.53,9.45,11.06,18.9,3.12-6.8,6.25-13.57l6,6.87A50.73,50.73,0,0,0,209,128.23"/><path class="cls-3" d="M99.16,117.66a229.86,229.86,0,0,0,13.51,79.7q2.07,5.69,4.46,11.14a76,76,0,0,1-18.06-13.43,58.3,58.3,0,0,1-12-17.63,55.51,55.51,0,0,1-4.54-22.09"/><path class="cls-3" d="M209,128.22h0a152.22,152.22,0,0,1,5.9,61.4,147.71,147.71,0,0,1-3.12,18.21,156.13,156.13,0,0,0,9.7-17.9,160.57,160.57,0,0,0,14.42-56.66"/><path class="cls-3" d="M112.67,197.36c32.79,14.22,71.79,11.1,102.17-7.74"/><path class="cls-3" d="M95.61,82.47a36.21,36.21,0,0,1,8.06-13.17,44.77,44.77,0,0,1,8.5-7c.35-.23.71-.45,1.07-.65a48.73,48.73,0,0,1,5.09-2.71c1.65-.78,3.33-1.47,5-2.09a76.6,76.6,0,0,1,8.29-2.46c2.69-.65,5.42-1.17,8.15-1.59a97.66,97.66,0,0,1,34.9.61c.87.19,1.73.39,2.59.6a72.62,72.62,0,0,1,9.15,2.91,67.05,67.05,0,0,1,7,3.2q2.22,1.2,4.35,2.56a51.53,51.53,0,0,1,5,3.68,56.3,56.3,0,0,1,7.8,7.79A51.66,51.66,0,0,1,222.32,101"/><path class="cls-4" d="M198.42,169.78l.78-.72"/><path class="cls-4" d="M183.63,176.09a25.16,25.16,0,0,0,4.57-.82,26,26,0,0,0,9.39-4.81c.27-.21.54-.43.8-.66"/><path class="cls-4" d="M187.68,158.24a23.16,23.16,0,0,0-9,4.86,15.1,15.1,0,0,0-2.17,2.28,9.59,9.59,0,0,0-1.36,2.39,6.26,6.26,0,0,0,.45,5.67c1.64,2.4,5,2.89,7.89,2.66h0"/><path class="cls-4" d="M196.46,171a17.23,17.23,0,0,0,1.93-1.19l0,0a8.44,8.44,0,0,0,2.37-2.51,5.66,5.66,0,0,0,.57-1.36c.75-2.77-1-5.78-3.49-7.19l-.14-.08a12.72,12.72,0,0,0-8.57-.76c-.48.1-1,.22-1.44.35"/><path class="cls-4" d="M191.94,157.2a24.42,24.42,0,0,0-14.29,4.6,13.38,13.38,0,0,0-4.27,4.71,7.11,7.11,0,0,0-.22,6.2,6.13,6.13,0,0,0,2,2.25,8.61,8.61,0,0,0,4.24,1.51,13.58,13.58,0,0,0,4.21-.37h.07c1.05-.25,2.1-.58,3.12-.93,1.79-.62,3.56-1.3,5.3-2.06q1.77-.76,3.48-1.62c.3-.15.6-.3.89-.47"/><path class="cls-4" d="M201.12,159.09l-.51-.08-.41-.06c-.78-.11-1.55-.19-2.33-.23a33.67,33.67,0,0,0-14.69,2.33,19.37,19.37,0,0,0-5.35,3.08,10.88,10.88,0,0,0-1.29,1.25,10.19,10.19,0,0,0-1.38,1.94,8.05,8.05,0,0,0,0,7.64,5.66,5.66,0,0,0,1.58,1.73,7.67,7.67,0,0,0,6.16.9,20.81,20.81,0,0,0,5.35-2.32l.49-.28,3.36-1.89,1.87-1.06,1.81-1a19.72,19.72,0,0,0,4.43-3.05,8.47,8.47,0,0,0,.63-.7,6.39,6.39,0,0,0,1.57-4.07A5.88,5.88,0,0,0,200.2,159l-.44-.35a7.66,7.66,0,0,0-1.82-1,11.91,11.91,0,0,0-6-.41h0c-.49.07-1,.16-1.45.27-.94.21-1.86.46-2.77.76h0a28.56,28.56,0,0,0-6.94,3.37,14,14,0,0,0-2.91,2.52,6.23,6.23,0,0,0-1.73,4.77,6.34,6.34,0,0,0,4.59,4.93,14.38,14.38,0,0,0,7.05,0,40.3,40.3,0,0,0,6.18-1.76c.84-.31,1.68-.65,2.5-1a0,0,0,0,0,0,0c.38-.16.76-.34,1.13-.53.79-.37,1.56-.78,2.32-1.21,1.71-1,3.48-2.22,4-4.12a5.26,5.26,0,0,0-1.75-5,7.83,7.83,0,0,0-1.53-1.08,8.32,8.32,0,0,0-.85-.41,14.54,14.54,0,0,0-2.65-.83,23.52,23.52,0,0,0-5.16-.57"/><path class="cls-4" d="M124,173.2c-.28-.18-.55-.38-.82-.58"/><path class="cls-4" d="M124.87,173.76l-.81-.53"/><path class="cls-4" d="M144.8,166.2a9.14,9.14,0,0,1,1.68,2.23,6.17,6.17,0,0,1,.25,5.59c-1.3,2.54-4.51,3.42-7.37,3.55h-.08a23.83,23.83,0,0,1-4.62-.25,25.66,25.66,0,0,1-9.78-3.55"/><path class="cls-4" d="M133.09,160.65a22.87,22.87,0,0,1,9.38,3.65,13.87,13.87,0,0,1,2.26,1.84"/><path class="cls-4" d="M126.05,174.15a17.94,17.94,0,0,1-2-.92l0,0a8,8,0,0,1-2.6-2.14,5.31,5.31,0,0,1-.71-1.25c-1.07-2.61.26-5.76,2.52-7.44l.13-.1a12.43,12.43,0,0,1,8.26-1.79c.48,0,1,.1,1.44.17"/><path class="cls-4" d="M128.78,160.16a24.08,24.08,0,0,1,14.56,2.74,13.17,13.17,0,0,1,4.74,4.08,7,7,0,0,1,1,6,6,6,0,0,1-1.66,2.45,8.34,8.34,0,0,1-3.92,2,13.44,13.44,0,0,1-4.2.15,28.65,28.65,0,0,1-3.19-.52c-1.84-.38-3.65-.84-5.45-1.38q-1.8-.51-3.57-1.14l-1-.36"/><path class="cls-4" d="M120.11,163.13l.46-.13.41-.11c.74-.21,1.49-.38,2.25-.52a33.1,33.1,0,0,1,14.62.47,19.55,19.55,0,0,1,5.59,2.34,13.48,13.48,0,0,1,1.29,1l.07.06a10.35,10.35,0,0,1,1.64,1.79,7.86,7.86,0,0,1,1,7.46,5.25,5.25,0,0,1-1.31,1.87,7.56,7.56,0,0,1-5.9,1.63,20.43,20.43,0,0,1-5.53-1.63l-.48-.2-3.54-1.45-1.95-.79-1.87-.77a19.43,19.43,0,0,1-4.7-2.44,8,8,0,0,1-.7-.61,6.28,6.28,0,0,1-2-3.78,6.46,6.46,0,0,1,2-4.83,7.15,7.15,0,0,1,1.62-1.16,11.62,11.62,0,0,1,5.74-1.13h0q.75,0,1.5.09a23.86,23.86,0,0,1,2.78.4h0a27.89,27.89,0,0,1,7.21,2.44,14,14,0,0,1,3.14,2.09,5.59,5.59,0,0,1-1.6,9.83,14.08,14.08,0,0,1-6.88.83,41.47,41.47,0,0,1-6.27-1c-.87-.21-1.73-.45-2.59-.71l0,0c-.39-.11-.78-.24-1.17-.38h0c-.79-.26-1.58-.55-2.35-.87-1.78-.73-3.66-1.75-4.39-3.54a5.16,5.16,0,0,1,1.1-5.13,7.39,7.39,0,0,1,1.34-1.22,9.17,9.17,0,0,1,.83-.55,15.07,15.07,0,0,1,2.46-1.11,23.65,23.65,0,0,1,4.9-1.18"/><path class="cls-3" d="M153.72,192.92a85.56,85.56,0,0,1,9.49,6.44,91.73,91.73,0,0,0,10.19-9.52"/><path class="cls-3" d="M190.46,182.79a7.42,7.42,0,0,0-.63,7.72,7.53,7.53,0,0,0,6.69,3.93,6.51,6.51,0,0,0,4.27-1.65A7.9,7.9,0,0,0,202.9,189a7.74,7.74,0,0,0-.52-5.87C199.88,178.88,193.24,179.11,190.46,182.79Z"/><path class="cls-3" d="M125,185.42a7.4,7.4,0,0,0-.62,7.72,7.52,7.52,0,0,0,6.68,3.93,6.49,6.49,0,0,0,4.27-1.65,7.9,7.9,0,0,0,2.11-3.81,7.79,7.79,0,0,0-.51-5.87C134.37,181.51,127.73,181.74,125,185.42Z"/><path class="cls-3" d="M77.83,116.34c3.34-3.94,8.51-10.73,10.92-13.4l6.09-6.77c3.93-4.39,8.15-9.08,8.15-9.08s-3.28-2-7.38-4.62C90.21,79.09,83.37,74.78,80.7,73c-2.84,11.68-3.88,28.87-4.8,41.77"/><path class="cls-3" d="M82.51,155.35q4.6-1.68,9-3.8c1-.47-12.54-19.62-13.89-21.22-1.21-1.44-2.54-2.87-3.6-3.21a1.39,1.39,0,0,0-.44-.07c-.78,0-1.35.8-1.52,3-.37,4.73-.95,9.44-1.71,14.12q-1.31,7.86-3.33,15.56A104.84,104.84,0,0,0,82.51,155.35Z"/><path class="cls-3" d="M221.49,189.94l25.52-.26,74.2-.72"/><path class="cls-3" d="M99.07,195.07H1"/><path class="cls-3" d="M231,163.42h.31"/><path class="cls-3" d="M231.08,163.09a16.74,16.74,0,0,1,5.29,4.26A45,45,0,0,1,247,189.68"/><path class="cls-3" d="M155.33,164.22a41.38,41.38,0,0,0-19.94-14.29"/><path class="cls-3" d="M163.42,163a52,52,0,0,1,16.06-14.25"/><path class="cls-3" d="M87.05,177.44c-8,2.3-15.78,9.78-18.44,17.63"/><path class="cls-3" d="M28.14,137.17c9.75,1.67,17.49,11.21,17.12,21.09"/><path class="cls-3" d="M34.81,131a14.32,14.32,0,0,0,17.54,6.13"/><path class="cls-3" d="M50.09,153.28a8.2,8.2,0,0,1,3.24-11.13"/><path class="cls-3" d="M252.29,95.92A22.3,22.3,0,0,1,262,110.08c.61,3,0,6.94-3,7.62"/><path class="cls-3" d="M260.85,95.28a13.28,13.28,0,0,0,19.35,6.08"/><path class="cls-3" d="M266.44,117.22a7.58,7.58,0,0,1,12.27-8.14"/><path class="cls-3" d="M225.69,116.21a11.15,11.15,0,0,1-1.52-2.59,16.12,16.12,0,0,0-1.93-2.76h0c-2.57-3.24-6.21-7.46-3.47-9.11a8.42,8.42,0,0,1,3.55-.77,20.92,20.92,0,0,0,2.64-.27c3-.62,5.25-2.36,8.08-3.31,1.19,5.27.76,12.36-1.93,17.16"/><path class="cls-3" d="M228.6,114.8a3.94,3.94,0,0,0-2.91,1.41,3.86,3.86,0,0,0-.93,2.05,4.4,4.4,0,0,0,2.63,4.33,3.85,3.85,0,0,0,.81.27,5,5,0,0,0,5.29-2.54,3.1,3.1,0,0,0,.21-.45c.65-1.6.39-2.49-1.37-4a11.28,11.28,0,0,0-1.46-.63,6.75,6.75,0,0,0-2.27-.45"/><path class="cls-3" d="M227.29,122.81q-.4,5.85-.82,11.71a33.4,33.4,0,0,0,16.24-4,16.37,16.37,0,0,0-9-10.66"/><path class="cls-3" d="M75.85,38.47c6.76-1.49,14,4.88,13.41,11.77"/><path class="cls-3" d="M85.12,32.72c2.59,6.52,12.35,8.68,17.46,3.87"/><path class="cls-3" d="M93.16,51.09c-1-5,4.64-10,9.44-8.28"/><path class="cls-3" d="M77.83,116.34a5.87,5.87,0,0,1-4,10.13h-.13a5.87,5.87,0,0,1,.13-11.74,5.72,5.72,0,0,1,1,.09,6,6,0,0,1,1,.26A5.8,5.8,0,0,1,77.83,116.34Z"/><path class="cls-3" d="M118.71,59.08c-.13-.06-.26-.11-.38-.18a15.63,15.63,0,0,1-8.72-13c-.31-5.6,1.91-11.49,6.76-14.3"/><path class="cls-3" d="M190.92,26.25c5.92,3.41,10.57,11.14,10.57,18a20,20,0,0,1-8.09,15.86,16.81,16.81,0,0,1-1.68,1.11"/><path class="cls-3" d="M116.37,31.63a233.94,233.94,0,0,1,6.26-30.34A85.27,85.27,0,0,1,138.1,21"/><path class="cls-3" d="M170.09,20.81A95.28,95.28,0,0,1,183.83,1a240,240,0,0,1,7.09,25.25"/><path class="cls-3" d="M138.1,21a93.64,93.64,0,0,1,32-.16"/><path class="cls-3" d="M163.73,35.78a5.34,5.34,0,1,0,9.47,3.85,5.41,5.41,0,0,0-3.95-5.56A5.27,5.27,0,0,0,163.73,35.78Z"/><path class="cls-4" d="M203.19,66.21a2.62,2.62,0,0,0-.4.11,6.32,6.32,0,1,0,7.8,7.79s0,0,0,0"/><path class="cls-4" d="M103.67,69.3a11,11,0,0,0,5,4.74c1.54.7,3.45,1,4.87.08,1.58-1,2-3.16,2.17-5.05a12.1,12.1,0,0,0-.06-4.37,4.42,4.42,0,0,0-2.46-3.09l-.28-.1"/><path class="cls-5" d="M165,35.7a2,2,0,1,1,.34,3.44A2.15,2.15,0,0,1,165,35.7Z"/><path class="cls-3" d="M136.48,35.87A5.34,5.34,0,1,0,146,39.72,5.41,5.41,0,0,0,142,34.16,5.27,5.27,0,0,0,136.48,35.87Z"/><path class="cls-5" d="M137.71,35.79a2,2,0,1,1,.34,3.44A2.15,2.15,0,0,1,137.71,35.79Z"/><path class="cls-3" d="M177.55,52.94a5.27,5.27,0,1,1,8.9,3.94,4.9,4.9,0,0,1-1.42,1"/><path class="cls-3" d="M123.19,56.32a4.46,4.46,0,1,1,8.47-2,3.79,3.79,0,0,1-.15,1.25"/><path class="cls-3" d="M200.53,73a39.19,39.19,0,0,0-4.27,2.44"/><path class="cls-3" d="M202.93,75.58,201.05,79"/><path class="cls-3" d="M110,71.41l2.81,7.24"/><path class="cls-3" d="M113.06,69.39A47.41,47.41,0,0,1,121.32,76"/></g></g></svg>